<?xml version="1.0" encoding="UTF-8"?>
<!-- Generated by Pixelmator Pro 3.6.2 -->
<svg width="300" height="113" viewBox="0 0 300 113" xmlns="http://www.w3.org/2000/svg">
    <path id="Suggestio" fill="#ffd453" fill-rule="evenodd" stroke="none" d="M 95.171875 112.220703 C 92.315857 112.220703 89.991211 111.338219 88.199219 109.574219 C 86.407196 107.810219 85.511719 105.500542 85.511719 102.644531 C 85.511719 98.668518 87.08078 94.397995 90.216797 89.833984 C 93.352814 85.269974 99.231468 79.656197 107.855469 72.992188 L 108.359375 69.716797 C 107.407379 71.228806 106.161102 72.389175 104.621094 73.201172 C 103.081085 74.013184 101.556915 74.419922 100.044922 74.419922 C 96.764412 74.419922 94.108856 73.29454 92.078125 71.044922 C 91.836334 71.221237 91.594238 71.396423 91.349609 71.564453 C 88.577576 73.46846 85.428406 74.419922 81.900391 74.419922 C 79.212372 74.419922 77.238525 73.384514 75.978516 71.3125 C 74.718506 69.240501 74.087891 66.328178 74.087891 62.576172 C 73.135864 66.384178 71.70871 69.309502 69.804688 71.353516 C 67.900696 73.397514 65.855896 74.419922 63.671875 74.419922 C 61.151863 74.419922 59.094055 73.257591 57.498047 70.933594 C 55.902039 68.609581 55.103516 65.712242 55.103516 62.240234 C 55.103516 58.040215 55.383362 54.189461 55.943359 50.689453 C 56.503357 47.189438 57.428772 43.48056 58.716797 39.560547 C 59.276794 37.880539 60.060364 36.675278 61.068359 35.947266 C 62.076385 35.219269 63.671486 34.855469 65.855469 34.855469 C 67.087494 34.855469 67.941956 35.051361 68.417969 35.443359 C 68.893982 35.835358 69.132813 36.423035 69.132813 37.207031 C 69.132813 37.655045 68.823029 39.168121 68.207031 41.744141 C 67.647034 43.816147 67.19928 45.691086 66.863281 47.371094 C 65.743256 53.251114 65.183594 57.172813 65.183594 59.132813 C 65.183594 60.308807 65.323517 61.133377 65.603516 61.609375 C 65.883514 62.085373 66.331268 62.324219 66.947266 62.324219 C 67.787262 62.324219 68.837646 61.484695 70.097656 59.804688 C 71.357666 58.12468 72.70285 55.576164 74.130859 52.160156 C 75.558868 48.744141 76.943115 44.544556 78.287109 39.560547 C 78.735107 37.880539 79.421692 36.675278 80.345703 35.947266 C 81.269714 35.219269 82.655914 34.855469 84.503906 34.855469 C 85.791901 34.855469 86.687408 35.010361 87.191406 35.318359 C 87.695435 35.626373 87.947266 36.199066 87.947266 37.039063 C 87.947266 38.439072 87.247681 42.27681 85.847656 48.548828 C 84.279663 55.716843 83.496094 60.140289 83.496094 61.820313 C 83.496094 62.884308 83.719971 63.710815 84.167969 64.298828 C 84.615967 64.886826 85.203644 65.179688 85.931641 65.179688 C 86.787308 65.179688 87.766373 64.777374 88.867188 63.976563 C 88.704582 62.954834 88.619141 61.873177 88.619141 60.728516 C 88.619141 56.248501 89.656494 52.00597 91.728516 48.001953 C 93.800537 43.997963 96.557922 40.777817 100.001953 38.341797 C 103.445953 35.905792 107.100853 34.6875 110.964844 34.6875 C 112.196869 34.6875 113.021423 34.926346 113.441406 35.402344 C 113.86142 35.878357 114.212189 36.732834 114.492188 37.964844 C 115.556183 37.740845 116.787506 37.628906 118.1875 37.628906 C 119.587524 37.628906 120.581909 37.837814 121.169922 38.257813 C 121.757904 38.677826 122.052734 39.504333 122.052734 40.736328 C 122.052734 41.40834 122.02475 41.940033 121.96875 42.332031 C 121.744751 44.068039 121.043182 48.463509 119.867188 55.519531 C 119.643188 56.863541 119.406311 58.333694 119.154297 59.929688 C 118.902313 61.525696 118.635468 63.219711 118.355469 65.011719 C 120.207947 63.568233 122.027916 62.201122 123.818359 60.902344 C 123.817932 60.844063 123.816406 60.787121 123.816406 60.728516 C 123.816406 56.248505 124.851807 52.005966 126.923828 48.001953 C 128.995819 43.997971 131.753265 40.777817 135.197266 38.341797 C 138.641296 35.905792 142.296143 34.6875 146.160156 34.6875 C 147.392151 34.6875 148.218658 34.926346 148.638672 35.402344 C 149.058685 35.878357 149.407501 36.732834 149.6875 37.964844 C 150.751526 37.740845 151.984741 37.628906 153.384766 37.628906 C 154.78476 37.628906 155.777222 37.837814 156.365234 38.257813 C 156.953247 38.677826 157.248047 39.504333 157.248047 40.736328 C 157.248047 41.40834 157.220062 41.940033 157.164063 42.332031 C 156.940063 44.068039 156.240479 48.463516 155.064453 55.519531 C 154.840454 56.863541 154.601593 58.333694 154.349609 59.929688 C 154.097595 61.525696 153.832733 63.219711 153.552734 65.011719 C 155.728653 63.316196 157.860825 61.720482 159.951172 60.224609 C 159.77327 59.056049 159.683594 57.824551 159.683594 56.527344 C 159.683594 52.663349 160.495117 49.066372 162.119141 45.734375 C 163.743164 42.402359 165.998779 39.756882 168.882813 37.796875 C 171.766785 35.836853 175.027893 34.855469 178.667969 34.855469 C 181.915955 34.855469 184.520508 35.821899 186.480469 37.753906 C 188.440491 39.685913 189.419922 42.303406 189.419922 45.607422 C 189.419922 49.471416 188.033691 52.790516 185.261719 55.5625 C 182.489685 58.334499 177.799438 60.532242 171.191406 62.15625 C 172.59137 64.732239 175.251831 66.019531 179.171875 66.019531 C 180.987823 66.019531 182.986603 65.558586 185.166016 64.642578 C 185.359329 64.189148 185.630066 63.752777 185.976563 63.332031 L 187.068359 61.988281 C 190.148376 58.180275 192.471069 55.04406 194.039063 52.580078 C 194.991089 50.95607 196.112366 48.786316 197.400391 46.070313 C 198.688354 43.354294 199.947693 40.540909 201.179688 37.628906 C 202.243713 35.164886 204.456421 33.931641 207.816406 33.931641 C 209.38446 33.931641 210.47583 34.071564 211.091797 34.351563 C 211.707825 34.631561 212.015625 35.079315 212.015625 35.695313 C 212.015625 36.031311 211.903687 36.564957 211.679688 37.292969 C 211.455688 38.020966 211.147888 38.748566 210.755859 39.476563 C 209.747864 41.492569 209.244141 43.1996 209.244141 44.599609 C 209.244141 45.439606 209.537048 46.363098 210.125 47.371094 C 210.713013 48.379105 211.623474 49.64035 212.855469 51.152344 C 214.647461 53.504341 216.005676 55.506195 216.929688 57.158203 C 217.853699 58.810211 218.316406 60.616188 218.316406 62.576172 C 218.316406 63.136169 218.260437 63.919739 218.148438 64.927734 C 220.304062 64.091888 222.754959 62.163429 225.498047 59.150391 C 225.021866 56.539169 224.783203 53.593613 224.783203 50.3125 C 224.783203 47.848495 224.867126 45.355957 225.035156 42.835938 L 221.759766 42.835938 C 220.079773 42.835938 218.945435 42.528107 218.357422 41.912109 C 217.76947 41.296097 217.476563 40.316666 217.476563 38.972656 C 217.476563 35.836639 218.73584 34.267578 221.255859 34.267578 L 226.044922 34.267578 C 226.996948 28.107597 228.452087 22.480736 230.412109 17.384766 C 232.372131 12.288795 234.737732 8.227142 237.509766 5.203125 C 240.281799 2.179108 243.263062 0.667969 246.455078 0.667969 C 248.807068 0.667969 250.656006 1.703384 252 3.775391 C 253.343994 5.847397 254.015625 8.451874 254.015625 11.587891 C 254.015625 20.267876 250.375732 27.827599 243.095703 34.267578 L 252.503906 34.267578 C 253.399902 34.267578 254.043579 34.46347 254.435547 34.855469 C 254.755157 35.175056 254.942917 35.722015 255.001953 36.488281 C 255.194427 36.243668 255.396912 36.034805 255.611328 35.863281 C 256.451355 35.191284 257.79657 34.855469 259.644531 34.855469 C 262.500549 34.855469 263.927734 35.808868 263.927734 37.712891 C 263.927734 39.112885 263.396057 42.359116 262.332031 47.455078 C 261.531494 51.124264 260.970093 54.082851 260.646484 56.341797 C 261.040527 57.008015 261.240234 57.909775 261.240234 59.048828 C 261.240234 60.475761 261.02356 61.69696 260.591797 62.714844 C 260.694946 63.138348 260.827179 63.513714 260.988281 63.835938 C 261.436279 64.731949 262.191895 65.179688 263.255859 65.179688 C 264.140503 65.179688 265.21936 64.6408 266.492188 63.5625 C 265.791229 61.418259 265.439453 59.157207 265.439453 56.779297 C 265.439453 52.5233 266.237976 48.730453 267.833984 45.398438 C 269.429993 42.066422 271.599731 39.461945 274.34375 37.585938 C 277.087769 35.70993 280.167969 34.771484 283.583984 34.771484 C 286.888 34.771484 289.71637 35.597992 292.068359 37.25 C 294.420349 38.902008 296.183411 41.071762 297.359375 43.759766 C 298.5354 46.447784 299.125 49.332123 299.125 52.412109 C 299.125 56.668091 298.311523 60.462936 296.6875 63.794922 C 295.063477 67.126907 292.865784 69.729462 290.09375 71.605469 C 287.321716 73.481476 284.256531 74.419922 280.896484 74.419922 C 277.592468 74.419922 274.777161 73.593414 272.453125 71.941406 C 271.697662 71.404388 271.005249 70.8125 270.371094 70.166016 C 266.951385 73.000999 263.683533 74.419922 260.568359 74.419922 C 257.056244 74.419922 254.469894 73.222305 252.808594 70.824219 C 252.458588 71.078842 252.105042 71.326454 251.748047 71.564453 C 248.892029 73.46846 245.615967 74.419922 241.919922 74.419922 C 235.649734 74.419922 231.100403 71.999687 228.271484 67.158203 C 226.390854 69.084518 224.570938 70.483002 222.810547 71.353516 C 220.262512 72.613525 217.111389 73.30011 213.359375 73.412109 C 211.119385 75.316116 208.460876 76.267578 205.380859 76.267578 C 202.468811 76.267578 200.24115 75.595963 198.701172 74.251953 C 197.161133 72.907944 196.392578 71.396805 196.392578 69.716797 C 196.392578 68.260788 196.924316 66.999542 197.988281 65.935547 C 199.052307 64.871536 200.619385 64.339844 202.691406 64.339844 C 203.419373 64.339844 204.273865 64.410782 205.253906 64.550781 C 206.233887 64.690781 206.976501 64.78775 207.480469 64.84375 C 207.4245 63.387741 207.101685 62.016525 206.513672 60.728516 C 205.92572 59.440506 205.183105 58.194229 204.287109 56.990234 C 203.391052 55.786224 202.551575 54.735855 201.767578 53.839844 C 201.269623 54.787556 200.772995 55.683453 200.277344 56.539063 C 200.598892 57.182186 200.759766 58.019821 200.759766 59.048828 C 200.759766 61.288815 200.228088 63.023849 199.164063 64.255859 C 197.092041 66.775864 194.166748 69.100525 190.386719 71.228516 C 186.606689 73.356522 182.560059 74.419922 178.248047 74.419922 C 172.368042 74.419922 167.804626 72.824814 164.556641 69.632813 C 163.890747 68.978401 163.295074 68.272896 162.765625 67.519531 C 160.477203 69.076599 158.599243 70.366684 157.248047 71.3125 L 151.871094 74.923828 C 149.743073 86.515839 146.957672 95.629616 143.513672 102.265625 C 140.069641 108.901627 135.687195 112.220703 130.367188 112.220703 C 127.511169 112.220703 125.188507 111.338219 123.396484 109.574219 C 121.604492 107.810219 120.707031 105.500534 120.707031 102.644531 C 120.707031 98.668526 122.276093 94.397995 125.412109 89.833984 C 128.548126 85.269974 134.428741 79.656189 143.052734 72.992188 L 143.556641 69.716797 C 142.604645 71.228806 141.358368 72.389175 139.818359 73.201172 C 138.278351 74.013184 136.752258 74.419922 135.240234 74.419922 C 131.768219 74.419922 128.995819 73.160629 126.923828 70.640625 C 126.455231 70.070709 126.042259 69.45871 125.679688 68.808594 C 124.251854 69.785568 123.010071 70.642365 122.052734 71.3125 L 116.675781 74.923828 C 114.547791 86.515854 111.76239 95.629608 108.318359 102.265625 C 104.874359 108.901634 100.49189 112.220703 95.171875 112.220703 Z M 96.095703 104.072266 C 97.495697 104.072266 99.077789 102.391251 100.841797 99.03125 C 102.605804 95.671249 104.299805 90.324287 105.923828 82.988281 C 101.611809 86.68428 98.503601 90.016373 96.599609 92.984375 C 94.695587 95.952377 93.744141 98.556877 93.744141 100.796875 C 93.744141 101.748878 93.925049 102.532433 94.289063 103.148438 C 94.653046 103.764435 95.255676 104.072266 96.095703 104.072266 Z M 131.292969 104.072266 C 132.692993 104.072266 134.273102 102.391251 136.037109 99.03125 C 137.801117 95.671249 139.495148 90.32428 141.119141 82.988281 C 136.807129 86.68428 133.700897 90.016373 131.796875 92.984375 C 129.892883 95.95237 128.939453 98.556877 128.939453 100.796875 C 128.939453 101.748871 129.122345 102.53244 129.486328 103.148438 C 129.850342 103.764435 130.452972 104.072266 131.292969 104.072266 Z M 24.947266 74.671875 C 17.499245 74.671875 11.536647 73.257706 7.056641 70.429688 C 2.576634 67.601685 0.335938 63.2752 0.335938 57.451172 C 0.335938 54.371159 0.867616 52.020493 1.931641 50.396484 C 2.995635 48.772476 4.56473 47.960938 6.636719 47.960938 C 8.148741 47.960938 9.380036 48.352707 10.332031 49.136719 C 11.284026 49.920715 11.759766 50.928146 11.759766 52.160156 C 11.759766 53.280151 11.675812 54.259598 11.507813 55.099609 C 11.507813 55.323608 11.466827 55.715393 11.382813 56.275391 C 11.298828 56.835388 11.255859 57.423065 11.255859 58.039063 C 11.255859 60.559078 12.530124 62.435959 15.078125 63.667969 C 17.626127 64.899979 21.195103 65.515625 25.787109 65.515625 C 30.547146 65.515625 34.272923 64.661133 36.960938 62.953125 C 39.648952 61.245117 40.992188 58.851498 40.992188 55.771484 C 40.992188 53.867477 40.376526 52.229431 39.144531 50.857422 C 37.912506 49.485413 36.37146 48.338058 34.523438 47.414063 C 32.675446 46.490051 30.072903 45.355728 26.712891 44.011719 C 22.400852 42.331711 18.885923 40.736618 16.169922 39.224609 C 13.453891 37.712601 11.129271 35.654785 9.197266 33.050781 C 7.265261 30.446762 6.300781 27.211662 6.300781 23.347656 C 6.300781 19.315636 7.3772 15.73172 9.533203 12.595703 C 11.689207 9.459702 14.797398 7.023117 18.857422 5.287109 C 22.917446 3.551102 27.691687 2.683594 33.179688 2.683594 C 37.267696 2.683594 41.019535 3.286224 44.435547 4.490234 C 47.851559 5.694229 50.582951 7.528168 52.626953 9.992188 C 54.670956 12.456192 55.691406 15.480438 55.691406 19.064453 C 55.691406 22.592468 55.159698 25.252899 54.095703 27.044922 C 53.031677 28.836929 51.464596 29.732422 49.392578 29.732422 C 47.936584 29.732422 46.718292 29.284683 45.738281 28.388672 C 44.75827 27.492661 44.267578 26.427322 44.267578 25.195313 C 44.267578 24.131302 44.351532 23.151871 44.519531 22.255859 C 44.687531 20.575851 44.771484 19.512466 44.771484 19.064453 C 44.771484 16.712448 43.624142 14.91951 41.328125 13.6875 C 39.032108 12.45549 36.175777 11.839844 32.759766 11.839844 C 27.943731 11.839844 24.262877 12.722321 21.714844 14.486328 C 19.166842 16.250351 17.892578 18.727905 17.892578 21.919922 C 17.892578 24.047928 18.549227 25.868851 19.865234 27.380859 C 21.181242 28.892868 22.819277 30.152145 24.779297 31.160156 C 26.739317 32.168152 29.483707 33.371475 33.011719 34.771484 C 37.267757 36.507492 40.68375 38.076553 43.259766 39.476563 C 45.835751 40.876572 48.033508 42.77948 49.853516 45.1875 C 51.673523 47.595505 52.583984 50.563786 52.583984 54.091797 C 52.583984 60.699821 50.078426 65.781876 45.066406 69.337891 C 40.054386 72.893906 33.347313 74.671875 24.947266 74.671875 Z M 103.068359 65.935547 C 104.356384 65.935547 105.587646 65.151993 106.763672 63.583984 C 107.939667 62.015976 108.779205 59.775288 109.283203 56.863281 L 111.972656 42.5 C 109.676666 42.556 107.547882 43.438477 105.587891 45.146484 C 103.627869 46.854492 102.06076 49.108196 100.884766 51.908203 C 100.35994 53.157795 99.953072 54.441238 99.662109 55.757813 C 99.817482 55.899658 99.958786 56.07196 100.085938 56.275391 C 100.505951 56.947388 100.716797 57.872818 100.716797 59.048828 C 100.716797 60.943611 100.33358 62.474903 99.572266 63.648438 C 99.730408 64.043663 99.928947 64.38662 100.169922 64.675781 C 100.869904 65.515793 101.836365 65.935547 103.068359 65.935547 Z M 138.263672 65.935547 C 139.551666 65.935547 140.784943 65.151993 141.960938 63.583984 C 143.136963 62.015976 143.97644 59.775284 144.480469 56.863281 L 147.167969 42.5 C 144.871948 42.556 142.743225 43.438477 140.783203 45.146484 C 138.823212 46.854492 137.256104 49.1082 136.080078 51.908203 C 135.407852 53.508751 134.928497 55.164581 134.640625 56.875 C 134.925903 57.504662 135.072266 58.255913 135.072266 59.132813 C 135.072266 60.420822 134.876373 61.428238 134.484375 62.15625 C 134.462692 62.196529 134.437119 62.235622 134.414063 62.275391 C 134.562103 63.291714 134.878738 64.09201 135.365234 64.675781 C 136.065247 65.515793 137.031647 65.935547 138.263672 65.935547 Z M 281.820313 65.347656 C 283.724304 65.347656 285.334351 64.31221 286.650391 62.240234 C 287.96637 60.168243 288.625 57.143951 288.625 53.167969 C 288.625 50.087982 288.063416 47.763321 286.943359 46.195313 C 285.823364 44.627304 284.480103 43.84375 282.912109 43.84375 C 280.896118 43.84375 279.230042 44.86615 277.914063 46.910156 C 276.672119 48.839149 276.017151 51.653961 275.947266 55.353516 C 276.400513 55.491951 276.776123 55.798443 277.074219 56.275391 C 277.494263 56.947388 277.703125 57.872818 277.703125 59.048828 C 277.703125 60.327404 277.530243 61.440464 277.183594 62.390625 C 277.318726 62.63596 277.461945 62.86784 277.619141 63.080078 C 278.739136 64.592087 280.14032 65.347656 281.820313 65.347656 Z M 243.683594 65.179688 C 246.091614 65.179688 248.220337 64.452103 250.068359 62.996094 C 250.132034 62.945923 250.19725 62.893696 250.261719 62.841797 C 250.190857 62.032581 250.152344 61.189835 250.152344 60.308594 C 250.152344 57.78862 250.473206 54.553452 251.117188 50.605469 C 251.670471 47.213821 252.359665 44.020271 253.181641 41.021484 C 251.62207 42.231133 249.071884 42.835938 245.53125 42.835938 L 235.283203 42.835938 C 235.171204 45.635956 235.115234 47.820663 235.115234 49.388672 C 235.115234 55.212654 235.801819 59.300365 237.173828 61.652344 C 238.545837 64.004333 240.715576 65.179688 243.683594 65.179688 Z M 169.847656 55.603516 C 173.151672 54.819504 175.756165 53.64418 177.660156 52.076172 C 179.564209 50.508163 180.515625 48.687241 180.515625 46.615234 C 180.515625 45.551239 180.222778 44.698685 179.634766 44.054688 C 179.046814 43.41069 178.24823 43.087891 177.240234 43.087891 C 175.168213 43.087891 173.418274 44.291214 171.990234 46.699219 C 170.562256 49.10722 169.847656 52.01955 169.847656 55.435547 L 169.847656 55.603516 Z M 236.125 33.007813 C 239.429016 30.15181 241.906616 26.94664 243.558594 23.390625 C 245.210632 19.83461 246.035156 16.599518 246.035156 13.6875 C 246.035156 10.383484 245.419495 8.732422 244.1875 8.732422 C 243.347534 8.732422 242.411011 9.782791 241.375 11.882813 C 240.338989 13.982819 239.357605 16.893173 238.433594 20.617188 C 237.509583 24.341217 236.740967 28.471855 236.125 33.007813 Z M 261.240234 29.3125 C 258.888245 29.3125 257.123291 28.765839 255.947266 27.673828 C 254.77124 26.581833 254.183594 25.055725 254.183594 23.095703 C 254.183594 21.135696 254.954102 19.497635 256.494141 18.181641 C 258.034119 16.865631 259.952026 16.207031 262.248047 16.207031 C 264.320068 16.207031 265.999084 16.712692 267.287109 17.720703 C 268.575073 18.728714 269.220703 20.155899 269.220703 22.003906 C 269.220703 24.243927 268.49115 26.021881 267.035156 27.337891 C 265.579163 28.6539 263.648254 29.3125 261.240234 29.3125 Z"/>
</svg>
